<?xml version="1.0" encoding="utf-8"?>
<!-- Generator: Adobe Illustrator 22.0.1, SVG Export Plug-In . SVG Version: 6.00 Build 0)  -->
<svg version="1.1" id="Layer_1" xmlns="http://www.w3.org/2000/svg" xmlns:xlink="http://www.w3.org/1999/xlink" x="0px" y="0px"
	 viewBox="0 0 35 45" style="enable-background:new 0 0 35 45;" xml:space="preserve">
<style type="text/css">
	.st0{fill:none;stroke:#686969;stroke-width:2;stroke-linecap:round;stroke-linejoin:round;}
</style>
<path class="st0" d="M10.5,6.2H5.8c-1.2,0-2.4,0.5-3.3,1.4c-0.9,0.9-1.4,2.1-1.4,3.3v28c0,1.2,0.5,2.4,1.4,3.3
	c0.9,0.9,2.1,1.4,3.3,1.4h23.3c1.2,0,2.4-0.5,3.3-1.4c0.9-0.9,1.4-2.1,1.4-3.3v-28c0-1.2-0.5-2.4-1.4-3.3c-0.9-0.9-2.1-1.4-3.3-1.4
	h-4.7"/>
<path class="st0" d="M19.8,1.5h-4.7c-2.6,0-4.7,2.1-4.7,4.7c0,2.6,2.1,4.7,4.7,4.7h4.7c2.6,0,4.7-2.1,4.7-4.7
	C24.5,3.6,22.4,1.5,19.8,1.5z"/>
<path class="st0" d="M10.5,29.2l4.7,4.7l9.3-9.3"/>
<path class="st0" d="M10.5,19.2l4.7,4.7l9.3-9.3"/>
</svg>
