<?xml version="1.0" encoding="utf-8"?>
<!-- Generator: Adobe Illustrator 22.0.1, SVG Export Plug-In . SVG Version: 6.00 Build 0)  -->
<svg version="1.1" id="Layer_1" xmlns="http://www.w3.org/2000/svg" xmlns:xlink="http://www.w3.org/1999/xlink" x="0px" y="0px"
	 viewBox="0 0 44 44" style="enable-background:new 0 0 44 44;" xml:space="preserve">
<style type="text/css">
	.st0{fill:none;stroke:#686969;stroke-width:2;stroke-linecap:round;stroke-linejoin:round;}
	.st1{fill:none;stroke:#686969;stroke-width:2;}
</style>
<path class="st0" d="M36,1H8C4.1,1,1,4.1,1,8v18.7c0,3.9,3.1,7,7,7h28c3.9,0,7-3.1,7-7V8C43,4.1,39.9,1,36,1z"/>
<path class="st0" d="M12.7,43L12.7,43"/>
<path class="st0" d="M22,43L22,43"/>
<path class="st0" d="M31.3,43L31.3,43"/>
<path class="st1" d="M16,23.2V11.7c0-0.8,0.8-1.2,1.5-0.9l10,5.2c0.7,0.4,0.7,1.3,0.1,1.7l-10,6.3C16.9,24.5,16,24,16,23.2z"/>
</svg>
