<svg width="52" height="52" viewBox="0 0 52 52" fill="none" xmlns="http://www.w3.org/2000/svg">
<path d="M38.5667 42.9369L33.8607 45.4026C33.721 45.4753 33.5639 45.5077 33.4069 45.4963C33.2499 45.4849 33.0991 45.43 32.9715 45.3379C32.8438 45.2457 32.7443 45.1199 32.684 44.9745C32.6237 44.829 32.605 44.6697 32.63 44.5143L33.5292 39.2904L29.7224 35.5919C29.6087 35.4821 29.5283 35.3425 29.4902 35.1891C29.4521 35.0358 29.4579 34.8748 29.5069 34.7245C29.5559 34.5743 29.6462 34.4408 29.7675 34.3394C29.8887 34.2381 30.036 34.1728 30.1925 34.1511L35.4532 33.3884L37.8062 28.6369C37.8766 28.4954 37.985 28.3763 38.1194 28.2931C38.2537 28.2099 38.4086 28.1658 38.5667 28.1658C38.7247 28.1658 38.8797 28.2099 39.014 28.2931C39.1484 28.3763 39.2568 28.4954 39.3272 28.6369L41.6802 33.3884L46.9409 34.1511C47.097 34.1736 47.2436 34.2392 47.3643 34.3407C47.485 34.4422 47.5749 34.5755 47.6239 34.7254C47.6728 34.8753 47.6788 35.0359 47.6412 35.189C47.6035 35.3422 47.5238 35.4817 47.411 35.5919L43.6042 39.2904L44.5012 44.5121C44.5281 44.6678 44.5108 44.828 44.4513 44.9743C44.3918 45.1207 44.2924 45.2475 44.1645 45.3402C44.0365 45.433 43.8851 45.488 43.7275 45.499C43.5699 45.51 43.4123 45.4766 43.2727 45.4026L38.5667 42.9369V42.9369Z" stroke="#00B1BB" stroke-width="2" stroke-linecap="round" stroke-linejoin="round"/>
<path d="M13.4334 42.9369L8.72739 45.4026C8.58774 45.4753 8.43063 45.5077 8.27361 45.4963C8.11658 45.4849 7.96583 45.43 7.83817 45.3379C7.71052 45.2457 7.61099 45.1199 7.55069 44.9745C7.4904 44.829 7.47171 44.6697 7.49673 44.5143L8.39589 39.2904L4.58906 35.5919C4.47543 35.4821 4.39498 35.3425 4.35688 35.1891C4.31879 35.0358 4.32458 34.8748 4.37361 34.7245C4.42264 34.5743 4.51292 34.4408 4.63415 34.3394C4.75538 34.2381 4.90268 34.1728 5.05923 34.1511L10.3199 33.3884L12.6729 28.6369C12.7433 28.4954 12.8517 28.3763 12.9861 28.2931C13.1204 28.2099 13.2753 28.1658 13.4334 28.1658C13.5914 28.1658 13.7464 28.2099 13.8807 28.2931C14.0151 28.3763 14.1235 28.4954 14.1939 28.6369L16.5469 33.3884L21.8076 34.1511C21.9636 34.1736 22.1103 34.2392 22.231 34.3407C22.3517 34.4422 22.4416 34.5755 22.4906 34.7254C22.5395 34.8753 22.5455 35.0359 22.5079 35.189C22.4702 35.3422 22.3905 35.4817 22.2777 35.5919L18.4709 39.2904L19.3679 44.5121C19.3948 44.6678 19.3775 44.828 19.318 44.9743C19.2585 45.1207 19.1591 45.2475 19.0312 45.3402C18.9032 45.433 18.7518 45.488 18.5942 45.499C18.4366 45.51 18.279 45.4766 18.1394 45.4026L13.4334 42.9369V42.9369Z" stroke="#00B1BB" stroke-width="2" stroke-linecap="round" stroke-linejoin="round"/>
<path d="M25.9998 21.2702L21.2938 23.7359C21.1541 23.8085 20.997 23.841 20.84 23.8296C20.683 23.8181 20.5322 23.7633 20.4046 23.6711C20.2769 23.579 20.1774 23.4532 20.1171 23.3077C20.0568 23.1623 20.0381 23.003 20.0631 22.8475L20.9623 17.6237L17.1555 13.9252C17.0418 13.8153 16.9614 13.6758 16.9233 13.5224C16.8852 13.369 16.891 13.208 16.94 13.0578C16.989 12.9075 17.0793 12.7741 17.2006 12.6727C17.3218 12.5713 17.4691 12.506 17.6256 12.4844L22.8863 11.7217L25.2393 6.97019C25.3097 6.82868 25.4181 6.7096 25.5525 6.62636C25.6868 6.54312 25.8418 6.49902 25.9998 6.49902C26.1578 6.49902 26.3128 6.54312 26.4471 6.62636C26.5815 6.7096 26.6899 6.82868 26.7603 6.97019L29.1133 11.7217L34.374 12.4844C34.5301 12.5068 34.6767 12.5725 34.7974 12.674C34.9181 12.7755 35.008 12.9087 35.057 13.0586C35.1059 13.2085 35.1119 13.3691 35.0743 13.5223C35.0367 13.6754 34.9569 13.815 34.8441 13.9252L31.0373 17.6237L31.9343 22.8454C31.9612 23.0011 31.9439 23.1612 31.8844 23.3076C31.8249 23.454 31.7255 23.5807 31.5976 23.6735C31.4696 23.7662 31.3183 23.8212 31.1606 23.8323C31.003 23.8433 30.8454 23.8099 30.7058 23.7359L25.9998 21.2702V21.2702Z" stroke="#00B1BB" stroke-width="2" stroke-linecap="round" stroke-linejoin="round"/>
</svg>
