<svg width="52" height="52" viewBox="0 0 52 52" fill="none" xmlns="http://www.w3.org/2000/svg">
<path d="M22.3708 9.3535C23.2938 5.54883 28.7062 5.54883 29.6292 9.3535C29.7677 9.92507 30.0391 10.4559 30.4215 10.9027C30.8039 11.3495 31.2864 11.6997 31.8297 11.9248C32.3731 12.1499 32.9619 12.2435 33.5482 12.198C34.1345 12.1526 34.7019 11.9693 35.204 11.6632C38.5472 9.6265 42.3757 13.4528 40.339 16.7982C40.0333 17.3001 39.8503 17.8671 39.805 18.453C39.7596 19.039 39.8531 19.6273 40.078 20.1703C40.3028 20.7133 40.6526 21.1956 41.0989 21.5779C41.5452 21.9603 42.0754 22.232 42.6465 22.3708C46.4512 23.2938 46.4512 28.7062 42.6465 29.6292C42.0749 29.7677 41.5441 30.0391 41.0973 30.4215C40.6505 30.8039 40.3003 31.2864 40.0752 31.8297C39.8501 32.3731 39.7565 32.9619 39.802 33.5482C39.8474 34.1345 40.0307 34.7019 40.3368 35.204C42.3735 38.5472 38.5472 42.3757 35.2018 40.339C34.6999 40.0333 34.1329 39.8503 33.547 39.805C32.961 39.7596 32.3727 39.8531 31.8297 40.078C31.2867 40.3028 30.8044 40.6526 30.4221 41.0989C30.0397 41.5452 29.768 42.0754 29.6292 42.6465C28.7062 46.4512 23.2938 46.4512 22.3708 42.6465C22.2323 42.0749 21.9609 41.5441 21.5785 41.0973C21.1961 40.6505 20.7136 40.3003 20.1703 40.0752C19.6269 39.8501 19.0381 39.7565 18.4518 39.802C17.8655 39.8474 17.2981 40.0307 16.796 40.3368C13.4528 42.3735 9.62433 38.5472 11.661 35.2018C11.9667 34.6999 12.1497 34.1329 12.195 33.547C12.2404 32.961 12.1469 32.3727 11.922 31.8297C11.6972 31.2867 11.3474 30.8044 10.9011 30.4221C10.4548 30.0397 9.92456 29.768 9.3535 29.6292C5.54883 28.7062 5.54883 23.2938 9.3535 22.3708C9.92507 22.2323 10.4559 21.9609 10.9027 21.5785C11.3495 21.1961 11.6997 20.7136 11.9248 20.1703C12.1499 19.6269 12.2435 19.0381 12.198 18.4518C12.1526 17.8655 11.9693 17.2981 11.6632 16.796C9.6265 13.4528 13.4528 9.62433 16.7982 11.661C18.9648 12.9783 21.7728 11.8127 22.3708 9.3535Z" stroke="#00B1BB" stroke-width="2" stroke-linecap="round" stroke-linejoin="round"/>
<path d="M26 32.5C29.5899 32.5 32.5 29.5899 32.5 26C32.5 22.4101 29.5899 19.5 26 19.5C22.4101 19.5 19.5 22.4101 19.5 26C19.5 29.5899 22.4101 32.5 26 32.5Z" stroke="#00B1BB" stroke-width="2" stroke-linecap="round" stroke-linejoin="round"/>
</svg>
