<svg width="52" height="52" viewBox="0 0 52 52" fill="none" xmlns="http://www.w3.org/2000/svg">
<path d="M41.1667 15.1667H10.8333C8.4401 15.1667 6.5 17.1068 6.5 19.5001V39.0001C6.5 41.3933 8.4401 43.3334 10.8333 43.3334H41.1667C43.5599 43.3334 45.5 41.3933 45.5 39.0001V19.5001C45.5 17.1068 43.5599 15.1667 41.1667 15.1667Z" stroke="#00B1BB" stroke-width="2" stroke-linecap="round" stroke-linejoin="round"/>
<path d="M17.3335 15.1667V10.8333C17.3335 9.68406 17.79 8.58186 18.6027 7.7692C19.4154 6.95655 20.5176 6.5 21.6668 6.5H30.3335C31.4828 6.5 32.585 6.95655 33.3976 7.7692C34.2103 8.58186 34.6668 9.68406 34.6668 10.8333V15.1667" stroke="#00B1BB" stroke-width="2" stroke-linecap="round" stroke-linejoin="round"/>
<path d="M26 26V26.0217" stroke="#00B1BB" stroke-width="2" stroke-linecap="round" stroke-linejoin="round"/>
<path d="M6.5 28.1667C12.5484 31.2146 19.2271 32.8022 26 32.8022C32.7729 32.8022 39.4516 31.2146 45.5 28.1667" stroke="#00B1BB" stroke-width="2" stroke-linecap="round" stroke-linejoin="round"/>
</svg>
