<svg width="52" height="52" viewBox="0 0 52 52" fill="none" xmlns="http://www.w3.org/2000/svg">
<path d="M15.1668 39.0001C12.4634 39.0001 9.87074 37.9729 7.95915 36.1444C6.04755 34.3159 4.97363 31.836 4.97363 29.2501C4.97363 26.6642 6.04755 24.1843 7.95915 22.3558C9.87074 20.5273 12.4634 19.5001 15.1668 19.5001C15.8053 16.6557 17.6731 14.156 20.3594 12.551C21.6895 11.7563 23.1805 11.2051 24.7473 10.929C26.3141 10.6529 27.926 10.6572 29.4909 10.9418C31.0558 11.2263 32.5431 11.7854 33.8679 12.5873C35.1928 13.3892 36.3291 14.418 37.2121 15.6151C38.0951 16.8122 38.7075 18.1541 39.0143 19.5642C39.3211 20.9743 39.3163 22.425 39.0002 23.8334H41.1668C43.178 23.8334 45.1069 24.6324 46.529 26.0545C47.9512 27.4767 48.7502 29.4055 48.7502 31.4168C48.7502 33.428 47.9512 35.3568 46.529 36.779C45.1069 38.2011 43.178 39.0001 41.1668 39.0001H15.1668Z" stroke="#00B1BB" stroke-width="2" stroke-linecap="round" stroke-linejoin="round"/>
</svg>
