<svg width="52" height="52" viewBox="0 0 52 52" fill="none" xmlns="http://www.w3.org/2000/svg">
<path d="M21.6665 30.3333L45.4998 6.5" stroke="#00B1BB" stroke-width="2" stroke-linecap="round" stroke-linejoin="round"/>
<path d="M45.4999 6.5L31.4166 45.5C31.3215 45.7074 31.1689 45.8832 30.9769 46.0065C30.7848 46.1297 30.5614 46.1952 30.3332 46.1952C30.1051 46.1952 29.8817 46.1297 29.6896 46.0065C29.4976 45.8832 29.345 45.7074 29.2499 45.5L21.6666 30.3333L6.49991 22.75C6.29247 22.6549 6.11668 22.5023 5.99344 22.3103C5.8702 22.1182 5.80469 21.8949 5.80469 21.6667C5.80469 21.4385 5.8702 21.2151 5.99344 21.0231C6.11668 20.831 6.29247 20.6784 6.49991 20.5833L45.4999 6.5Z" stroke="#00B1BB" stroke-width="2" stroke-linecap="round" stroke-linejoin="round"/>
</svg>
