<svg width="52" height="52" viewBox="0 0 52 52" fill="none" xmlns="http://www.w3.org/2000/svg">
<path d="M36 23.0576V11.125C36 9.95139 35.2445 9 34.3125 9H10.6875C9.75552 9 9 9.95139 9 11.125V40.875C9 42.0486 9.75552 43 10.6875 43H34.3125C35.2445 43 36 42.0486 36 40.875V30.9038" stroke="#00B1BB" stroke-width="2" stroke-linecap="round" stroke-linejoin="round"/>
<path d="M41.2628 32.3243C40.8897 32.7314 40.9172 33.364 41.3243 33.7372C41.7314 34.1103 42.364 34.0828 42.7372 33.6757L41.2628 32.3243ZM47.5 27L48.2372 27.6757C48.4169 27.4797 48.5111 27.2202 48.499 26.9545C48.4869 26.6888 48.3694 26.4389 48.1727 26.2601L47.5 27ZM42.6727 21.2601C42.264 20.8886 41.6316 20.9187 41.2601 21.3273C40.8886 21.736 40.9187 22.3684 41.3273 22.7399L42.6727 21.2601ZM42.7372 33.6757L48.2372 27.6757L46.7628 26.3243L41.2628 32.3243L42.7372 33.6757ZM48.1727 26.2601L42.6727 21.2601L41.3273 22.7399L46.8273 27.7399L48.1727 26.2601Z" fill="#00B1BB"/>
<path d="M24 27H45.5" stroke="#00B1BB" stroke-width="2" stroke-linecap="round" stroke-linejoin="round"/>
</svg>
