<?xml version="1.0" encoding="utf-8"?>
<!-- Generator: Adobe Illustrator 22.0.1, SVG Export Plug-In . SVG Version: 6.00 Build 0)  -->
<svg version="1.1" id="Layer_1" xmlns="http://www.w3.org/2000/svg" xmlns:xlink="http://www.w3.org/1999/xlink" x="0px" y="0px"
	 viewBox="0 0 45 40" style="enable-background:new 0 0 45 40;" xml:space="preserve">
<style type="text/css">
	.st0{fill:none;stroke:#686969;stroke-width:2;stroke-linecap:round;stroke-linejoin:round;}
</style>
<path class="st0" d="M13.2,20H3.8c-1.3,0-2.3,1-2.3,2.3v14c0,1.3,1,2.3,2.3,2.3h9.3c1.3,0,2.3-1,2.3-2.3v-14
	C15.5,21,14.5,20,13.2,20z"/>
<path class="st0" d="M27.2,10.7h-9.3c-1.3,0-2.3,1-2.3,2.3v23.3c0,1.3,1,2.3,2.3,2.3h9.3c1.3,0,2.3-1,2.3-2.3V13
	C29.5,11.7,28.5,10.7,27.2,10.7z"/>
<path class="st0" d="M41.2,1.3h-9.3c-1.3,0-2.3,1-2.3,2.3v32.7c0,1.3,1,2.3,2.3,2.3h9.3c1.3,0,2.3-1,2.3-2.3V3.7
	C43.5,2.4,42.5,1.3,41.2,1.3z"/>
<path class="st0" d="M3.8,38.7h32.7"/>
</svg>
