<?xml version="1.0" encoding="utf-8"?>
<!-- Generator: Adobe Illustrator 22.0.1, SVG Export Plug-In . SVG Version: 6.00 Build 0)  -->
<svg version="1.1" id="Layer_1" xmlns="http://www.w3.org/2000/svg" xmlns:xlink="http://www.w3.org/1999/xlink" x="0px" y="0px"
	 viewBox="0 0 40 46" style="enable-background:new 0 0 40 46;" xml:space="preserve">
<style type="text/css">
	.st0{fill:none;stroke:#686969;stroke-width:2;}
	.st1{fill:#FFFFFF;}
	.st2{fill:#686969;}
</style>
<path class="st0" d="M3,16h34c1.1,0,2,0.9,2,2v25c0,1.1-0.9,2-2,2H3c-1.1,0-2-0.9-2-2V18C1,16.9,1.9,16,3,16z"/>
<path class="st0" d="M1,39h38"/>
<path class="st1" d="M19,9c-1.1,0-2,0.9-2,2v1.5c-4.1,1.3-7,5.1-7,9.5c0,5.5,4.5,10,10,10s10-4.5,10-10c0-4.5-2.9-8.3-7-9.5V11
	c0-1.1-0.9-2-2-2H19z"/>
<path class="st2" d="M17,12.5l0.3,1l0.7-0.2v-0.7H17z M23,12.5h-1v0.7l0.7,0.2L23,12.5z M18,11c0-0.6,0.4-1,1-1V8c-1.7,0-3,1.3-3,3
	H18z M18,12.5V11h-2v1.5H18z M11,22c0-4,2.6-7.4,6.3-8.6l-0.6-1.9C12.2,12.9,9,17.1,9,22H11z M20,31c-5,0-9-4-9-9H9
	c0,6.1,4.9,11,11,11V31z M29,22c0,5-4,9-9,9v2c6.1,0,11-4.9,11-11H29z M22.7,13.4C26.4,14.6,29,18,29,22h2c0-4.9-3.2-9.1-7.7-10.5
	L22.7,13.4z M22,11v1.5h2V11H22z M21,10c0.6,0,1,0.4,1,1h2c0-1.7-1.3-3-3-3V10z M19,10h2V8h-2V10z"/>
<path class="st2" d="M26,4l0.9-0.3l0,0L26,4z M33,11c0.6,0,1-0.4,1-1s-0.4-1-1-1V11z M21,9C21,9,21,9,21,9C21,9,21,9,21,9
	C21,9,21,9,21,9C21,9,21,9,21,9C21,9,21,9,21,9C21,9,21,9,21,9C21,9,21,9,21,9C21,9,21,9,21,9C21,9,21,9,21,9C21,9,21,9,21,9
	C21,8.9,21,8.9,21,9C21,8.9,21,8.9,21,9C21,8.9,21,8.9,21,9C21,8.9,21,8.9,21,9C21,8.9,21,8.9,21,9C21,8.9,21,8.9,21,9
	C21,8.9,21,8.9,21,9C21,8.9,21,8.9,21,9C21,8.9,21,8.9,21,9c0-0.1,0-0.1,0-0.1c0,0,0,0,0,0c0,0,0,0,0,0s0,0,0,0c0,0,0,0,0,0
	c0,0,0,0,0,0c0,0,0,0,0,0c0,0,0,0,0,0c0,0,0,0,0,0c0,0,0,0,0,0c0,0,0,0,0,0c0,0,0,0,0,0s0,0,0,0c0,0,0,0,0,0s0,0,0,0c0,0,0,0,0,0
	c0,0,0,0,0,0c0,0,0,0,0,0s0,0,0,0c0,0,0,0,0,0c0,0,0,0,0,0c0,0,0,0,0,0s0,0,0,0c0,0,0,0,0,0s0,0,0,0c0,0,0,0,0,0s0,0,0,0
	c0,0,0,0,0,0s0,0,0,0c0,0,0,0,0,0s0,0,0,0s0,0,0,0c0,0,0,0,0,0c0,0,0,0,0,0s0,0,0,0c0,0,0,0,0,0c0,0,0,0,0,0s0,0,0,0s0,0,0,0
	c0,0,0,0,0,0s0,0,0,0s0,0,0,0s0,0,0,0s0,0,0,0c0,0,0,0,0,0s0,0,0,0c0,0,0,0,0,0c0,0,0,0,0,0s0,0,0,0c0,0,0,0,0,0c0,0,0,0,0,0
	c0,0,0,0,0,0s0,0,0,0s0,0,0,0c0,0,0,0,0,0s0,0,0,0s0,0,0,0s0,0,0,0s0,0,0,0c0,0,0,0,0,0s0,0,0,0c0,0,0,0,0,0c0,0,0,0,0,0
	c0,0,0,0,0,0c0,0,0,0,0,0c0,0,0,0,0,0c0,0,0,0,0,0c0,0,0,0,0,0c0,0,0,0,0,0c0,0,0,0,0,0c0,0,0,0,0,0s0,0,0,0s0,0,0,0s0,0,0,0
	c0,0,0,0,0,0c0,0,0,0,0,0c0,0,0,0,0,0c0,0,0,0,0,0c0,0,0,0,0,0c0,0,0,0,0,0c0,0,0,0,0,0c0,0,0,0,0,0c0,0,0,0,0,0c0,0,0,0,0,0
	c0,0,0,0,0,0c0,0,0,0,0,0c0,0,0,0,0,0c0,0,0,0,0,0c0,0,0,0,0,0c0,0,0,0,0,0c0,0,0,0,0,0c0,0,0,0,0,0c0,0,0,0,0,0c0,0,0,0,0,0
	c0,0,0,0,0,0c0,0,0,0,0,0c0,0,0,0,0,0c0,0,0,0,0,0c0,0,0,0,0,0c0,0,0,0,0,0c0,0,0,0,0,0c0,0,0,0,0,0c0,0,0,0,0,0c0,0,0,0,0,0
	c0,0,0,0,0,0c0,0,0,0,0,0c0,0,0,0,0,0c0,0,0,0,0,0s0,0,0,0c0,0,0,0,0,0c0,0,0,0,0,0c0,0,0,0,0,0c0,0,0,0,0,0c0,0,0,0,0,0
	c0,0,0,0,0,0c0,0,0,0,0,0c0,0,0,0,0,0c0,0,0,0,0,0c0,0,0,0,0,0c0,0,0,0,0,0c0,0,0,0,0,0c0,0,0,0,0,0c0,0,0,0,0,0c0,0,0,0,0,0
	c0,0,0,0,0,0c0,0,0,0,0,0c0,0,0,0,0,0c0,0,0,0,0,0c0,0,0,0,0,0c0,0,0,0,0,0c0,0,0,0,0,0c0,0,0,0,0,0s0,0,0,0s0,0,0,0c0,0,0,0,0,0
	c0,0,0,0,0,0c0,0,0,0,0,0s0,0,0,0c0,0,0,0,0,0c0,0,0,0,0,0c0,0,0,0,0,0c0,0,0,0,0,0c0,0,0,0,0,0s0,0,0,0c0,0,0,0,0,0c0,0,0,0,0,0
	c0,0,0,0,0,0c0,0,0,0,0,0s0,0,0,0c0,0,0,0,0,0s0,0,0,0c0,0,0,0,0,0c0,0,0,0,0,0s0,0,0,0s0,0,0,0s0,0,0,0s0,0,0,0c0,0,0,0,0,0
	s0,0,0,0c0,0,0,0,0,0s0,0,0,0c0,0,0,0,0,0c0,0,0,0,0,0c0,0,0,0,0,0c0,0,0,0,0,0c0,0,0,0,0,0c0,0,0,0,0,0c0,0,0,0,0,0c0,0,0,0,0,0
	c0,0,0,0,0,0c0,0,0,0,0,0c0,0,0,0,0,0c0,0,0,0,0,0c0,0,0,0,0,0s0,0,0,0c0,0,0,0,0,0c0,0,0,0,0,0s0,0,0,0s0,0,0,0s0,0,0,0s0,0,0,0
	s0,0,0,0c0,0,0,0,0,0s0,0,0,0s0,0,0,0s0,0,0,0s0,0,0,0s0,0,0,0s0,0,0,0c0,0,0,0,0,0s0,0,0,0c0,0,0,0,0,0s0,0,0,0c0,0,0,0,0,0
	c0,0,0,0,0,0c0,0,0,0,0,0c0,0,0,0,0,0c0,0,0,0,0,0c0,0,0,0,0,0c0,0,0,0,0,0c0,0,0,0,0,0c0,0,0,0,0,0c0,0,0,0,0,0s0,0,0,0
	c0,0,0,0,0,0c0,0,0,0,0,0c0,0,0,0,0,0c0,0,0,0,0,0c0,0,0,0,0,0c0,0,0,0,0,0s0,0,0,0c0,0,0,0,0,0c0,0,0,0,0,0c0,0,0,0,0,0
	c0,0,0,0,0,0c0,0,0,0,0,0s0,0,0,0c0,0,0,0,0,0c0,0,0,0,0,0s0,0,0,0s0,0,0,0c0,0,0,0,0,0s0,0,0,0s0,0,0,0c0,0,0,0,0,0s0,0,0,0
	s0,0,0,0c0,0,0,0,0,0s0,0,0,0s0,0,0,0c0,0,0,0,0,0s0,0,0,0c0,0,0,0,0,0s0,0,0,0s0,0,0,0s0,0,0,0c0,0,0,0,0,0s0,0,0,0s0,0,0,0
	c0,0,0,0,0,0s0,0,0,0c0,0,0,0,0,0c0,0,0,0,0,0c0,0,0,0,0,0c0,0,0,0,0,0c0,0,0,0,0,0s0,0,0,0c0,0,0,0,0,0c0,0,0,0,0,0c0,0,0,0,0,0
	c0,0,0,0,0,0c0,0,0,0,0,0s0,0,0,0c0,0,0,0,0,0c0,0,0,0,0,0c0,0,0,0,0,0c0,0,0,0,0,0c0,0,0,0,0,0c0,0,0,0,0,0c0,0,0,0,0,0s0,0,0,0
	c0,0,0,0,0,0s0,0,0,0s0,0,0,0c0,0,0,0,0,0c0,0,0,0,0,0s0,0,0,0s0,0,0,0c0,0,0,0,0,0c0,0,0,0,0,0c0,0,0,0,0,0c0,0,0,0,0,0
	c0,0,0,0,0,0c0,0,0,0,0,0c0,0,0,0,0,0c0,0,0,0,0,0c0,0,0,0,0,0c0,0,0,0,0,0c0,0,0,0,0,0c0,0,0,0,0,0c0,0,0,0,0,0c0,0,0,0,0,0
	c0,0,0,0,0,0c0,0,0,0,0,0s0,0,0,0c0,0,0,0,0,0c0,0,0,0,0,0c0,0,0,0,0,0c0,0,0,0,0,0s0,0,0,0c0,0,0,0,0,0c0,0,0,0,0,0c0,0,0,0,0,0
	c0,0,0,0,0,0c0,0,0,0,0,0c0,0,0,0,0,0c0,0,0,0,0,0c0,0,0,0,0,0c0,0,0,0,0,0c0,0,0,0,0,0c0,0,0,0,0,0c0,0,0,0,0,0c0,0,0,0,0,0
	c0,0,0,0,0,0c0,0,0,0,0,0c0,0,0,0,0,0s0,0,0,0s0,0,0,0c0,0,0,0,0,0s0,0,0,0s0,0,0,0s0,0,0,0s0,0,0,0c0,0,0,0,0,0c0,0,0,0,0,0
	c0,0,0,0,0,0c0,0,0,0,0,0c0,0,0,0,0,0c0,0,0,0,0,0c0,0,0,0,0,0c0,0,0,0,0,0c0,0,0,0,0,0c0,0,0,0,0,0c0,0,0,0,0,0c0,0,0,0,0,0
	c0,0,0,0,0,0c0,0,0,0,0,0c0,0,0,0,0,0c0,0,0,0,0,0c0,0,0,0,0,0s0,0,0,0s0,0,0,0s0,0,0,0s0,0,0,0s0,0,0,0c0,0,0,0,0,0c0,0,0,0,0,0
	c0,0,0,0,0,0s0,0,0,0c0,0,0,0,0,0c0,0,0,0,0,0c0,0,0,0,0,0c0,0,0,0,0,0c0,0,0,0,0,0s0,0,0,0s0,0,0,0c0,0,0,0,0,0c0,0,0,0,0,0
	c0,0,0,0,0,0c0,0,0,0,0,0s0,0,0,0s0,0,0,0c0,0,0,0,0,0c0,0,0,0,0,0c0,0,0,0,0,0s0,0,0,0c0,0,0,0,0,0c0,0,0,0,0,0c0,0,0,0,0,0
	c0,0,0,0,0,0c0,0,0,0,0,0c0,0,0,0,0,0c0,0,0,0,0,0c0,0,0,0,0,0s0,0,0,0s0,0,0,0s0,0,0,0c0,0,0,0,0,0c0,0,0,0,0,0c0,0,0,0,0,0
	c0,0,0,0,0,0s0,0,0,0c0,0,0,0,0,0c0,0,0,0,0,0s0,0,0,0s0,0,0,0c0,0,0,0,0,0c0,0,0,0,0,0c0,0,0,0,0,0c0,0,0,0,0,0c0,0,0,0,0,0
	c0,0,0,0,0,0c0,0,0,0,0,0c0,0,0,0,0,0c0,0,0,0,0,0c0,0,0,0,0,0c0,0,0,0,0,0c0,0,0,0,0,0s0,0,0,0s0,0,0,0c0,0,0,0,0,0c0,0,0,0,0,0
	c0,0,0,0,0,0c0,0,0,0,0,0c0,0,0,0,0,0c0,0,0,0,0,0s0,0,0,0c0,0,0,0,0,0c0,0,0,0,0,0c0,0,0,0,0,0c0,0,0,0,0,0c0,0,0,0,0,0
	c0,0,0,0,0,0c0,0,0,0,0,0s0,0,0,0c0,0,0,0,0,0c0,0,0,0,0,0s0,0,0,0s0,0,0,0c0,0,0,0,0,0c0,0,0,0,0,0c0,0,0,0,0,0c0,0,0,0,0,0
	s0,0,0,0c0,0,0,0,0,0c0,0,0,0,0,0c0,0,0,0,0,0c0,0,0,0,0,0c0,0,0,0,0,0c0,0,0,0,0,0c0,0,0,0,0,0c0,0,0,0,0,0c0,0,0,0,0,0
	c0,0,0,0,0,0s0,0,0,0c0,0,0,0,0,0c0,0,0,0,0,0c0,0,0,0,0,0c0,0,0,0,0,0s0,0,0,0c0,0,0,0,0,0c0,0,0,0,0,0c0,0,0,0,0,0c0,0,0,0,0,0
	s0,0,0,0c0,0,0,0,0,0s0,0,0,0c0,0,0,0,0,0c0,0,0,0,0,0c0,0,0,0,0,0c0,0,0,0,0,0c0,0,0,0,0,0c0,0,0,0,0,0s0,0,0,0c0,0,0,0,0,0
	s0,0,0,0c0,0,0,0,0,0c0,0,0,0,0,0c0,0,0,0,0,0c0,0,0,0,0,0c0,0,0,0,0,0c0,0,0,0,0,0c0,0,0,0,0,0c0,0,0,0,0,0s0,0,0,0c0,0,0,0,0,0
	c0,0,0,0,0,0c0,0,0,0,0,0s0,0,0,0c0,0,0,0,0,0c0,0,0,0,0,0c0,0,0,0,0,0s0,0,0,0c0,0,0,0,0,0c0,0,0,0,0,0c0,0,0,0,0,0c0,0,0,0,0,0
	c0,0,0,0,0,0c0,0,0,0,0,0c0,0,0,0,0,0s0,0,0,0c0,0,0,0,0,0c0,0,0,0,0,0c0,0,0,0,0,0s0,0,0,0c0,0,0,0,0,0c0,0,0,0,0,0c0,0,0,0,0,0
	s0,0,0,0c0,0,0,0,0,0c0,0,0,0,0,0s0,0,0,0s0,0,0,0c0,0,0,0,0,0c0,0,0,0,0,0c0,0,0,0,0,0c0,0,0,0,0,0c0,0,0,0,0,0c0,0,0,0,0,0
	c0,0,0,0,0,0c0,0,0,0,0,0c0,0,0,0,0,0s0,0,0,0h-2c0,0,0,0,0,0s0,0,0,0c0,0,0,0,0,0c0,0,0,0,0,0c0,0,0,0,0,0c0,0,0,0,0,0c0,0,0,0,0,0
	c0,0,0,0,0,0c0,0,0,0,0,0c0,0,0,0,0,0c0,0,0,0,0,0s0,0,0,0s0,0,0,0c0,0,0,0,0,0c0,0,0,0,0,0s0,0,0,0c0,0,0,0,0,0c0,0,0,0,0,0
	c0,0,0,0,0,0s0,0,0,0c0,0,0,0,0,0c0,0,0,0,0,0c0,0,0,0,0,0s0,0,0,0c0,0,0,0,0,0c0,0,0,0,0,0c0,0,0,0,0,0c0,0,0,0,0,0c0,0,0,0,0,0
	c0,0,0,0,0,0c0,0,0,0,0,0s0,0,0,0c0,0,0,0,0,0c0,0,0,0,0,0c0,0,0,0,0,0s0,0,0,0c0,0,0,0,0,0c0,0,0,0,0,0c0,0,0,0,0,0s0,0,0,0
	c0,0,0,0,0,0c0,0,0,0,0,0c0,0,0,0,0,0c0,0,0,0,0,0c0,0,0,0,0,0c0,0,0,0,0,0c0,0,0,0,0,0c0,0,0,0,0,0s0,0,0,0c0,0,0,0,0,0s0,0,0,0
	c0,0,0,0,0,0c0,0,0,0,0,0c0,0,0,0,0,0c0,0,0,0,0,0c0,0,0,0,0,0c0,0,0,0,0,0s0,0,0,0c0,0,0,0,0,0s0,0,0,0c0,0,0,0,0,0c0,0,0,0,0,0
	c0,0,0,0,0,0c0,0,0,0,0,0s0,0,0,0c0,0,0,0,0,0c0,0,0,0,0,0c0,0,0,0,0,0c0,0,0,0,0,0s0,0,0,0c0,0,0,0,0,0c0,0,0,0,0,0c0,0,0,0,0,0
	c0,0,0,0,0,0c0,0,0,0,0,0c0,0,0,0,0,0c0,0,0,0,0,0c0,0,0,0,0,0c0,0,0,0,0,0c0,0,0,0,0,0s0,0,0,0c0,0,0,0,0,0c0,0,0,0,0,0
	c0,0,0,0,0,0c0,0,0,0,0,0s0,0,0,0s0,0,0,0c0,0,0,0,0,0c0,0,0,0,0,0s0,0,0,0c0,0,0,0,0,0c0,0,0,0,0,0c0,0,0,0,0,0c0,0,0,0,0,0
	c0,0,0,0,0,0c0,0,0,0,0,0c0,0,0,0,0,0s0,0,0,0c0,0,0,0,0,0c0,0,0,0,0,0c0,0,0,0,0,0c0,0,0,0,0,0c0,0,0,0,0,0c0,0,0,0,0,0s0,0,0,0
	s0,0,0,0c0,0,0,0,0,0c0,0,0,0,0,0c0,0,0,0,0,0c0,0,0,0,0,0c0,0,0,0,0,0c0,0,0,0,0,0c0,0,0,0,0,0c0,0,0,0,0,0c0,0,0,0,0,0
	c0,0,0,0,0,0c0,0,0,0,0,0c0,0,0,0,0,0s0,0,0,0s0,0,0,0c0,0,0,0,0,0c0,0,0,0,0,0s0,0,0,0c0,0,0,0,0,0c0,0,0,0,0,0c0,0,0,0,0,0
	c0,0,0,0,0,0s0,0,0,0s0,0,0,0s0,0,0,0c0,0,0,0,0,0c0,0,0,0,0,0c0,0,0,0,0,0c0,0,0,0,0,0c0,0,0,0,0,0c0,0,0,0,0,0c0,0,0,0,0,0
	c0,0,0,0,0,0s0,0,0,0c0,0,0,0,0,0c0,0,0,0,0,0c0,0,0,0,0,0s0,0,0,0s0,0,0,0c0,0,0,0,0,0c0,0,0,0,0,0c0,0,0,0,0,0c0,0,0,0,0,0
	s0,0,0,0s0,0,0,0c0,0,0,0,0,0c0,0,0,0,0,0c0,0,0,0,0,0c0,0,0,0,0,0c0,0,0,0,0,0s0,0,0,0c0,0,0,0,0,0c0,0,0,0,0,0c0,0,0,0,0,0
	s0,0,0,0s0,0,0,0s0,0,0,0s0,0,0,0s0,0,0,0c0,0,0,0,0,0c0,0,0,0,0,0c0,0,0,0,0,0c0,0,0,0,0,0c0,0,0,0,0,0c0,0,0,0,0,0c0,0,0,0,0,0
	c0,0,0,0,0,0c0,0,0,0,0,0c0,0,0,0,0,0c0,0,0,0,0,0c0,0,0,0,0,0c0,0,0,0,0,0c0,0,0,0,0,0c0,0,0,0,0,0c0,0,0,0,0,0c0,0,0,0,0,0
	s0,0,0,0s0,0,0,0s0,0,0,0s0,0,0,0c0,0,0,0,0,0s0,0,0,0s0,0,0,0c0,0,0,0,0,0c0,0,0,0,0,0c0,0,0,0,0,0c0,0,0,0,0,0c0,0,0,0,0,0
	c0,0,0,0,0,0c0,0,0,0,0,0c0,0,0,0,0,0c0,0,0,0,0,0c0,0,0,0,0,0c0,0,0,0,0,0c0,0,0,0,0,0c0,0,0,0,0,0c0,0,0,0,0,0c0,0,0,0,0,0
	c0,0,0,0,0,0s0,0,0,0c0,0,0,0,0,0c0,0,0,0,0,0c0,0,0,0,0,0c0,0,0,0,0,0s0,0,0,0c0,0,0,0,0,0c0,0,0,0,0,0c0,0,0,0,0,0c0,0,0,0,0,0
	c0,0,0,0,0,0c0,0,0,0,0,0c0,0,0,0,0,0c0,0,0,0,0,0c0,0,0,0,0,0c0,0,0,0,0,0c0,0,0,0,0,0c0,0,0,0,0,0c0,0,0,0,0,0c0,0,0,0,0,0
	c0,0,0,0,0,0c0,0,0,0,0,0s0,0,0,0s0,0,0,0c0,0,0,0,0,0c0,0,0,0,0,0s0,0,0,0s0,0,0,0c0,0,0,0,0,0s0,0,0,0c0,0,0,0,0,0c0,0,0,0,0,0
	c0,0,0,0,0,0c0,0,0,0,0,0c0,0,0,0,0,0c0,0,0,0,0,0c0,0,0,0,0,0s0,0,0,0c0,0,0,0,0,0c0,0,0,0,0,0c0,0,0,0,0,0c0,0,0,0,0,0
	c0,0,0,0,0,0s0,0,0,0c0,0,0,0,0,0c0,0,0,0,0,0c0,0,0,0,0,0c0,0,0,0,0,0c0,0,0,0,0,0s0,0,0,0c0,0,0,0,0,0s0,0,0,0s0,0,0,0
	c0,0,0,0,0,0s0,0,0,0s0,0,0,0s0,0,0,0c0,0,0,0,0,0s0,0,0,0c0,0,0,0,0,0s0,0,0,0s0,0,0,0c0,0,0,0,0,0s0,0,0,0s0,0,0,0c0,0,0,0,0,0
	s0,0,0,0s0,0,0,0c0,0,0,0,0,0s0,0,0,0s0,0,0,0c0,0,0,0,0,0c0,0,0,0,0,0s0,0,0,0c0,0,0,0,0,0c0,0,0,0,0,0c0,0,0,0,0,0c0,0,0,0,0,0
	c0,0,0,0,0,0s0,0,0,0c0,0,0,0,0,0c0,0,0,0,0,0c0,0,0,0,0,0c0,0,0,0,0,0c0,0,0,0,0,0c0,0,0,0,0,0s0,0,0,0c0,0,0,0,0,0c0,0,0,0,0,0
	c0,0,0,0,0,0c0,0,0,0,0,0c0,0,0,0,0,0c0,0,0,0,0,0c0,0,0,0,0,0c0,0,0,0,0,0c0,0,0,0,0,0c0,0,0,0,0,0s0,0,0,0c0,0,0,0,0,0s0,0,0,0
	c0,0,0,0,0,0s0,0,0,0s0,0,0,0s0,0,0,0s0,0,0,0s0,0,0,0s0,0,0,0c0,0,0,0,0,0s0,0,0,0s0,0,0,0s0,0,0,0s0,0,0,0s0,0,0,0c0,0,0,0,0,0
	c0,0,0,0,0,0s0,0,0,0c0,0,0,0,0,0c0,0,0,0,0,0c0,0,0,0,0,0c0,0,0,0,0,0c0,0,0,0,0,0c0,0,0,0,0,0c0,0,0,0,0,0c0,0,0,0,0,0
	c0,0,0,0,0,0c0,0,0,0,0,0c0,0,0,0,0,0c0,0,0,0,0,0c0,0,0,0,0,0s0,0,0,0c0,0,0,0,0,0s0,0,0,0c0,0,0,0,0,0s0,0,0,0s0,0,0,0s0,0,0,0
	s0,0,0,0c0,0,0,0,0,0c0,0,0,0,0,0s0,0,0,0c0,0,0,0,0,0s0,0,0,0c0,0,0,0,0,0c0,0,0,0,0,0c0,0,0,0,0,0c0,0,0,0,0,0s0,0,0,0
	c0,0,0,0,0,0c0,0,0,0,0,0c0,0,0,0,0,0c0,0,0,0,0,0c0,0,0,0,0,0s0,0,0,0c0,0,0,0,0,0c0,0,0,0,0,0c0,0,0,0,0,0s0,0,0,0s0,0,0,0
	c0,0,0,0,0,0c0,0,0,0,0,0c0,0,0,0,0,0c0,0,0,0,0,0c0,0,0,0,0,0c0,0,0,0,0,0c0,0,0,0,0,0c0,0,0,0,0,0c0,0,0,0,0,0c0,0,0,0,0,0
	c0,0,0,0,0,0c0,0,0,0,0,0c0,0,0,0,0,0c0,0,0,0,0,0c0,0,0,0,0,0c0,0,0,0,0,0c0,0,0,0,0,0c0,0,0,0,0,0c0,0,0,0,0,0c0,0,0,0,0,0
	c0,0,0,0,0,0c0,0,0,0,0,0c0,0,0,0,0,0s0,0,0,0c0,0,0,0,0,0c0,0,0,0,0,0c0,0,0,0,0,0c0,0,0,0,0,0c0,0,0,0,0,0c0,0,0,0,0,0
	c0,0,0,0,0,0c0,0,0,0,0,0c0,0,0,0,0,0c0,0,0,0,0,0c0,0,0,0,0,0c0,0,0,0,0,0c0,0,0,0,0,0c0,0,0,0,0,0c0,0,0,0,0,0c0,0,0,0,0,0
	c0,0,0,0,0,0c0,0,0,0,0,0c0,0,0,0,0,0c0,0,0,0,0,0c0,0,0,0,0,0c0,0,0,0,0,0c0,0,0,0,0,0c0,0,0,0,0,0c0,0,0,0,0,0c0,0,0,0,0,0
	c0,0,0,0,0,0c0,0,0,0,0,0c0,0,0,0,0,0c0,0,0,0,0,0c0,0,0,0,0,0c0,0,0,0,0,0c0,0,0,0,0,0c0,0,0,0,0,0s0,0,0,0s0,0,0,0s0,0,0,0
	c0,0,0,0,0,0c0,0,0,0,0,0c0,0,0,0,0,0c0,0,0,0,0,0c0,0,0,0,0,0c0,0,0,0,0,0c0,0,0,0,0,0c0,0,0,0,0,0c0,0,0,0,0,0c0,0,0,0,0,0
	s0,0,0,0c0,0,0,0,0,0s0,0,0,0s0,0,0,0s0,0,0,0s0,0,0,0c0,0,0,0,0,0s0,0,0,0s0,0,0,0c0,0,0,0,0,0c0,0,0,0,0,0c0,0,0,0,0,0s0,0,0,0
	c0,0,0,0,0,0c0,0,0,0,0,0s0,0,0,0c0,0,0,0,0,0s0,0,0,0s0,0,0,0s0,0,0,0s0,0,0,0c0,0,0,0,0,0s0,0,0,0s0,0,0,0c0,0,0,0,0,0
	c0,0,0,0,0,0s0,0,0,0c0,0,0,0,0,0c0,0,0,0,0,0s0,0,0,0s0,0,0,0c0,0,0,0,0,0s0,0,0,0c0,0,0,0,0,0s0,0,0,0c0,0,0,0,0,0s0,0,0,0
	c0,0,0,0,0,0s0,0,0,0c0,0,0,0,0,0c0,0,0,0,0,0c0,0,0,0,0,0s0,0,0,0c0,0,0,0,0,0c0,0,0,0,0,0c0,0,0,0,0,0s0,0,0,0c0,0,0,0,0,0
	s0,0,0,0c0,0,0,0,0,0c0,0,0,0,0,0c0,0,0,0,0,0c0,0,0,0,0,0c0,0,0,0,0,0c0,0,0,0,0,0c0,0,0,0,0,0c0,0,0,0,0,0s0,0,0,0c0,0,0,0,0,0
	c0,0,0,0,0,0c0,0,0,0,0,0c0,0,0,0,0,0c0,0,0,0,0,0c0,0,0,0,0,0c0,0,0,0,0,0c0,0,0,0,0,0c0,0,0,0,0,0c0,0,0,0,0,0c0,0,0,0,0,0
	c0,0,0,0,0,0c0,0,0,0,0,0c0,0,0,0,0,0s0,0,0,0c0,0,0,0,0,0c0,0,0,0,0,0c0,0,0,0,0,0c0,0,0,0,0,0c0,0,0,0,0,0c0,0,0,0,0,0H21z M21,5
	c0-1.3,0.8-2.3,1.7-2.5c0.4-0.1,0.8-0.1,1.2,0.2c0.4,0.2,0.8,0.7,1.1,1.6l1.9-0.6c-0.4-1.3-1.1-2.2-2-2.7c-0.9-0.5-1.9-0.6-2.8-0.4
	C20.4,1.1,19,2.8,19,5H21z M25.1,4.3c0.2,0.7,0.3,1.3,0.4,2c0.1,0.6,0.2,1.4,0.3,2c0.1,0.6,0.4,1.3,0.9,1.9c0.6,0.6,1.4,0.8,2.3,0.8
	V9c-0.6,0-0.8-0.1-0.9-0.2c-0.1-0.1-0.3-0.4-0.4-0.9c-0.1-0.5-0.2-1.1-0.3-1.8c-0.1-0.7-0.2-1.5-0.5-2.4L25.1,4.3z M29,11
	C29,11,29,11,29,11C29,11,29,11,29,11C29,11,29,11,29,11C29,11,29,11,29,11C29,11,29,11,29,11C29,11,29,11,29,11
	C29.1,11,29.1,11,29,11C29.1,11,29.1,11,29,11C29.1,11,29.1,11,29,11C29.1,11,29.1,11,29,11C29.1,11,29.1,11,29,11
	c0.1,0,0.1,0,0.1,0c0,0,0,0,0,0c0,0,0,0,0,0c0,0,0,0,0,0c0,0,0,0,0,0c0,0,0,0,0,0c0,0,0,0,0,0c0,0,0,0,0,0c0,0,0,0,0,0c0,0,0,0,0,0
	c0,0,0,0,0,0c0,0,0,0,0,0c0,0,0,0,0,0c0,0,0,0,0,0c0,0,0,0,0,0s0,0,0,0c0,0,0,0,0,0c0,0,0,0,0,0c0,0,0,0,0,0s0,0,0,0c0,0,0,0,0,0
	c0,0,0,0,0,0c0,0,0,0,0,0c0,0,0,0,0,0c0,0,0,0,0,0c0,0,0,0,0,0c0,0,0,0,0,0c0,0,0,0,0,0c0,0,0,0,0,0c0,0,0,0,0,0c0,0,0,0,0,0
	c0,0,0,0,0,0c0,0,0,0,0,0c0,0,0,0,0,0c0,0,0,0,0,0c0,0,0,0,0,0c0,0,0,0,0,0c0,0,0,0,0,0c0,0,0,0,0,0c0,0,0,0,0,0c0,0,0,0,0,0
	c0,0,0,0,0,0c0,0,0,0,0,0c0,0,0,0,0,0c0,0,0,0,0,0c0,0,0,0,0,0c0,0,0,0,0,0c0,0,0,0,0,0c0,0,0,0,0,0c0,0,0,0,0,0c0,0,0,0,0,0
	c0,0,0,0,0,0c0,0,0,0,0,0c0,0,0,0,0,0c0,0,0,0,0,0c0,0,0,0,0,0c0,0,0,0,0,0c0,0,0,0,0,0c0,0,0,0,0,0c0,0,0,0,0,0c0,0,0,0,0,0
	c0,0,0,0,0,0c0,0,0,0,0,0c0,0,0,0,0,0c0,0,0,0,0,0s0,0,0,0c0,0,0,0,0,0c0,0,0,0,0,0c0,0,0,0,0,0c0,0,0,0,0,0c0,0,0,0,0,0s0,0,0,0
	c0,0,0,0,0,0c0,0,0,0,0,0c0,0,0,0,0,0c0,0,0,0,0,0c0,0,0,0,0,0c0,0,0,0,0,0c0,0,0,0,0,0c0,0,0,0,0,0c0,0,0,0,0,0c0,0,0,0,0,0
	s0,0,0,0c0,0,0,0,0,0c0,0,0,0,0,0s0,0,0,0c0,0,0,0,0,0c0,0,0,0,0,0c0,0,0,0,0,0c0,0,0,0,0,0s0,0,0,0c0,0,0,0,0,0c0,0,0,0,0,0
	c0,0,0,0,0,0c0,0,0,0,0,0c0,0,0,0,0,0c0,0,0,0,0,0c0,0,0,0,0,0c0,0,0,0,0,0s0,0,0,0c0,0,0,0,0,0c0,0,0,0,0,0c0,0,0,0,0,0
	c0,0,0,0,0,0c0,0,0,0,0,0c0,0,0,0,0,0c0,0,0,0,0,0c0,0,0,0,0,0s0,0,0,0c0,0,0,0,0,0c0,0,0,0,0,0c0,0,0,0,0,0c0,0,0,0,0,0
	c0,0,0,0,0,0c0,0,0,0,0,0c0,0,0,0,0,0c0,0,0,0,0,0c0,0,0,0,0,0c0,0,0,0,0,0c0,0,0,0,0,0s0,0,0,0c0,0,0,0,0,0c0,0,0,0,0,0
	c0,0,0,0,0,0c0,0,0,0,0,0c0,0,0,0,0,0c0,0,0,0,0,0c0,0,0,0,0,0c0,0,0,0,0,0c0,0,0,0,0,0c0,0,0,0,0,0c0,0,0,0,0,0c0,0,0,0,0,0
	c0,0,0,0,0,0c0,0,0,0,0,0c0,0,0,0,0,0c0,0,0,0,0,0c0,0,0,0,0,0s0,0,0,0c0,0,0,0,0,0c0,0,0,0,0,0c0,0,0,0,0,0c0,0,0,0,0,0
	c0,0,0,0,0,0c0,0,0,0,0,0c0,0,0,0,0,0c0,0,0,0,0,0c0,0,0,0,0,0c0,0,0,0,0,0c0,0,0,0,0,0c0,0,0,0,0,0c0,0,0,0,0,0c0,0,0,0,0,0
	c0,0,0,0,0,0c0,0,0,0,0,0c0,0,0,0,0,0c0,0,0,0,0,0c0,0,0,0,0,0c0,0,0,0,0,0c0,0,0,0,0,0c0,0,0,0,0,0c0,0,0,0,0,0c0,0,0,0,0,0
	c0,0,0,0,0,0c0,0,0,0,0,0c0,0,0,0,0,0c0,0,0,0,0,0c0,0,0,0,0,0c0,0,0,0,0,0c0,0,0,0,0,0c0,0,0,0,0,0s0,0,0,0c0,0,0,0,0,0
	c0,0,0,0,0,0c0,0,0,0,0,0c0,0,0,0,0,0c0,0,0,0,0,0c0,0,0,0,0,0c0,0,0,0,0,0c0,0,0,0,0,0c0,0,0,0,0,0c0,0,0,0,0,0c0,0,0,0,0,0
	c0,0,0,0,0,0s0,0,0,0c0,0,0,0,0,0c0,0,0,0,0,0c0,0,0,0,0,0c0,0,0,0,0,0c0,0,0,0,0,0c0,0,0,0,0,0c0,0,0,0,0,0c0,0,0,0,0,0
	c0,0,0,0,0,0c0,0,0,0,0,0c0,0,0,0,0,0c0,0,0,0,0,0c0,0,0,0,0,0c0,0,0,0,0,0c0,0,0,0,0,0c0,0,0,0,0,0c0,0,0,0,0,0c0,0,0,0,0,0
	c0,0,0,0,0,0c0,0,0,0,0,0c0,0,0,0,0,0c0,0,0,0,0,0c0,0,0,0,0,0c0,0,0,0,0,0c0,0,0,0,0,0c0,0,0,0,0,0s0,0,0,0c0,0,0,0,0,0
	c0,0,0,0,0,0c0,0,0,0,0,0c0,0,0,0,0,0c0,0,0,0,0,0c0,0,0,0,0,0c0,0,0,0,0,0s0,0,0,0s0,0,0,0c0,0,0,0,0,0c0,0,0,0,0,0s0,0,0,0
	c0,0,0,0,0,0s0,0,0,0c0,0,0,0,0,0s0,0,0,0c0,0,0,0,0,0c0,0,0,0,0,0s0,0,0,0c0,0,0,0,0,0s0,0,0,0s0,0,0,0c0,0,0,0,0,0s0,0,0,0
	s0,0,0,0c0,0,0,0,0,0c0,0,0,0,0,0c0,0,0,0,0,0c0,0,0,0,0,0c0,0,0,0,0,0c0,0,0,0,0,0c0,0,0,0,0,0c0,0,0,0,0,0s0,0,0,0c0,0,0,0,0,0
	c0,0,0,0,0,0s0,0,0,0s0,0,0,0s0,0,0,0s0,0,0,0s0,0,0,0c0,0,0,0,0,0s0,0,0,0c0,0,0,0,0,0s0,0,0,0s0,0,0,0c0,0,0,0,0,0s0,0,0,0
	c0,0,0,0,0,0c0,0,0,0,0,0s0,0,0,0s0,0,0,0c0,0,0,0,0,0s0,0,0,0c0,0,0,0,0,0c0,0,0,0,0,0c0,0,0,0,0,0c0,0,0,0,0,0c0,0,0,0,0,0
	c0,0,0,0,0,0c0,0,0,0,0,0c0,0,0,0,0,0c0,0,0,0,0,0c0,0,0,0,0,0c0,0,0,0,0,0s0,0,0,0c0,0,0,0,0,0c0,0,0,0,0,0c0,0,0,0,0,0s0,0,0,0
	c0,0,0,0,0,0s0,0,0,0c0,0,0,0,0,0c0,0,0,0,0,0c0,0,0,0,0,0c0,0,0,0,0,0s0,0,0,0s0,0,0,0c0,0,0,0,0,0s0,0,0,0s0,0,0,0c0,0,0,0,0,0
	c0,0,0,0,0,0c0,0,0,0,0,0c0,0,0,0,0,0c0,0,0,0,0,0c0,0,0,0,0,0c0,0,0,0,0,0c0,0,0,0,0,0c0,0,0,0,0,0c0,0,0,0,0,0c0,0,0,0,0,0
	c0,0,0,0,0,0c0,0,0,0,0,0c0,0,0,0,0,0c0,0,0,0,0,0c0,0,0,0,0,0c0,0,0,0,0,0s0,0,0,0c0,0,0,0,0,0c0,0,0,0,0,0s0,0,0,0c0,0,0,0,0,0
	c0,0,0,0,0,0c0,0,0,0,0,0c0,0,0,0,0,0c0,0,0,0,0,0c0,0,0,0,0,0c0,0,0,0,0,0c0,0,0,0,0,0c0,0,0,0,0,0c0,0,0,0,0,0c0,0,0,0,0,0
	c0,0,0,0,0,0s0,0,0,0c0,0,0,0,0,0c0,0,0,0,0,0c0,0,0,0,0,0c0,0,0,0,0,0c0,0,0,0,0,0c0,0,0,0,0,0c0,0,0,0,0,0c0,0,0,0,0,0
	c0,0,0,0,0,0c0,0,0,0,0,0c0,0,0,0,0,0c0,0,0,0,0,0c0,0,0,0,0,0c0,0,0,0,0,0c0,0,0,0,0,0s0,0,0,0s0,0,0,0c0,0,0,0,0,0c0,0,0,0,0,0
	c0,0,0,0,0,0s0,0,0,0s0,0,0,0s0,0,0,0s0,0,0,0c0,0,0,0,0,0s0,0,0,0c0,0,0,0,0,0c0,0,0,0,0,0c0,0,0,0,0,0c0,0,0,0,0,0c0,0,0,0,0,0
	c0,0,0,0,0,0s0,0,0,0s0,0,0,0s0,0,0,0s0,0,0,0c0,0,0,0,0,0s0,0,0,0s0,0,0,0s0,0,0,0s0,0,0,0s0,0,0,0c0,0,0,0,0,0c0,0,0,0,0,0
	s0,0,0,0s0,0,0,0c0,0,0,0,0,0c0,0,0,0,0,0c0,0,0,0,0,0c0,0,0,0,0,0c0,0,0,0,0,0c0,0,0,0,0,0c0,0,0,0,0,0c0,0,0,0,0,0s0,0,0,0
	c0,0,0,0,0,0c0,0,0,0,0,0c0,0,0,0,0,0c0,0,0,0,0,0c0,0,0,0,0,0c0,0,0,0,0,0c0,0,0,0,0,0c0,0,0,0,0,0c0,0,0,0,0,0c0,0,0,0,0,0
	c0,0,0,0,0,0c0,0,0,0,0,0c0,0,0,0,0,0c0,0,0,0,0,0c0,0,0,0,0,0c0,0,0,0,0,0c0,0,0,0,0,0c0,0,0,0,0,0c0,0,0,0,0,0c0,0,0,0,0,0
	c0,0,0,0,0,0c0,0,0,0,0,0c0,0,0,0,0,0c0,0,0,0,0,0c0,0,0,0,0,0c0,0,0,0,0,0c0,0,0,0,0,0s0,0,0,0s0,0,0,0c0,0,0,0,0,0s0,0,0,0
	c0,0,0,0,0,0c0,0,0,0,0,0c0,0,0,0,0,0c0,0,0,0,0,0c0,0,0,0,0,0c0,0,0,0,0,0c0,0,0,0,0,0c0,0,0,0,0,0c0,0,0,0,0,0c0,0,0,0,0,0
	s0,0,0,0c0,0,0,0,0,0s0,0,0,0c0,0,0,0,0,0s0,0,0,0s0,0,0,0c0,0,0,0,0,0c0,0,0,0,0,0c0,0,0,0,0,0c0,0,0,0,0,0c0,0,0,0,0,0
	c0,0,0,0,0,0c0,0,0,0,0,0c0,0,0,0,0,0c0,0,0,0,0,0s0,0,0,0c0,0,0,0,0,0s0,0,0,0s0,0,0,0c0,0,0,0,0,0c0,0,0,0,0,0c0,0,0,0,0,0
	c0,0,0,0,0,0c0,0,0,0,0,0c0,0,0,0,0,0c0,0,0,0,0,0c0,0,0,0,0,0c0,0,0,0,0,0c0,0,0,0,0,0c0,0,0,0,0,0c0,0,0,0,0,0c0,0,0,0,0,0
	c0,0,0,0,0,0c0,0,0,0,0,0c0,0,0,0,0,0c0,0,0,0,0,0c0,0,0,0,0,0c0,0,0,0,0,0c0,0,0,0,0,0c0,0,0,0,0,0c0,0,0,0,0,0c0,0,0,0,0,0
	c0,0,0,0,0,0c0,0,0,0,0,0c0,0,0,0,0,0c0,0,0,0,0,0c0,0,0,0,0,0c0,0,0,0,0,0c0,0,0,0,0,0c0,0,0,0,0,0c0,0,0,0,0,0c0,0,0,0,0,0
	c0,0,0,0,0,0s0,0,0,0s0,0,0,0c0,0,0,0,0,0s0,0,0,0s0,0,0,0s0,0,0,0c0,0,0,0,0,0c0,0,0,0,0,0c0,0,0,0,0,0c0,0,0,0,0,0c0,0,0,0,0,0
	c0,0,0,0,0,0s0,0,0,0s0,0,0,0s0,0,0,0s0,0,0,0s0,0,0,0s0,0,0,0s0,0,0,0c0,0,0,0,0,0c0,0,0,0,0,0c0,0,0,0,0,0c0,0,0,0,0,0
	c0,0,0,0,0,0c0,0,0,0,0,0V9c0,0,0,0,0,0c0,0,0,0,0,0c0,0,0,0,0,0c0,0,0,0,0,0c0,0,0,0,0,0c0,0,0,0,0,0c0,0,0,0,0,0s0,0,0,0s0,0,0,0
	s0,0,0,0s0,0,0,0s0,0,0,0s0,0,0,0s0,0,0,0c0,0,0,0,0,0c0,0,0,0,0,0c0,0,0,0,0,0c0,0,0,0,0,0c0,0,0,0,0,0c0,0,0,0,0,0s0,0,0,0
	s0,0,0,0s0,0,0,0c0,0,0,0,0,0s0,0,0,0s0,0,0,0c0,0,0,0,0,0c0,0,0,0,0,0c0,0,0,0,0,0c0,0,0,0,0,0c0,0,0,0,0,0c0,0,0,0,0,0
	c0,0,0,0,0,0c0,0,0,0,0,0c0,0,0,0,0,0c0,0,0,0,0,0c0,0,0,0,0,0c0,0,0,0,0,0c0,0,0,0,0,0c0,0,0,0,0,0c0,0,0,0,0,0c0,0,0,0,0,0
	c0,0,0,0,0,0c0,0,0,0,0,0c0,0,0,0,0,0c0,0,0,0,0,0c0,0,0,0,0,0c0,0,0,0,0,0c0,0,0,0,0,0c0,0,0,0,0,0c0,0,0,0,0,0c0,0,0,0,0,0
	c0,0,0,0,0,0c0,0,0,0,0,0c0,0,0,0,0,0c0,0,0,0,0,0c0,0,0,0,0,0c0,0,0,0,0,0c0,0,0,0,0,0c0,0,0,0,0,0s0,0,0,0s0,0,0,0c0,0,0,0,0,0
	s0,0,0,0c0,0,0,0,0,0c0,0,0,0,0,0c0,0,0,0,0,0c0,0,0,0,0,0c0,0,0,0,0,0c0,0,0,0,0,0c0,0,0,0,0,0c0,0,0,0,0,0c0,0,0,0,0,0s0,0,0,0
	s0,0,0,0c0,0,0,0,0,0s0,0,0,0c0,0,0,0,0,0s0,0,0,0c0,0,0,0,0,0c0,0,0,0,0,0c0,0,0,0,0,0c0,0,0,0,0,0c0,0,0,0,0,0c0,0,0,0,0,0
	c0,0,0,0,0,0c0,0,0,0,0,0c0,0,0,0,0,0c0,0,0,0,0,0s0,0,0,0c0,0,0,0,0,0s0,0,0,0s0,0,0,0c0,0,0,0,0,0c0,0,0,0,0,0c0,0,0,0,0,0
	c0,0,0,0,0,0c0,0,0,0,0,0c0,0,0,0,0,0c0,0,0,0,0,0c0,0,0,0,0,0c0,0,0,0,0,0c0,0,0,0,0,0c0,0,0,0,0,0c0,0,0,0,0,0c0,0,0,0,0,0
	c0,0,0,0,0,0c0,0,0,0,0,0c0,0,0,0,0,0c0,0,0,0,0,0c0,0,0,0,0,0c0,0,0,0,0,0c0,0,0,0,0,0c0,0,0,0,0,0c0,0,0,0,0,0c0,0,0,0,0,0
	c0,0,0,0,0,0c0,0,0,0,0,0c0,0,0,0,0,0c0,0,0,0,0,0s0,0,0,0c0,0,0,0,0,0c0,0,0,0,0,0c0,0,0,0,0,0c0,0,0,0,0,0c0,0,0,0,0,0
	c0,0,0,0,0,0c0,0,0,0,0,0c0,0,0,0,0,0s0,0,0,0s0,0,0,0c0,0,0,0,0,0c0,0,0,0,0,0s0,0,0,0s0,0,0,0s0,0,0,0s0,0,0,0s0,0,0,0
	c0,0,0,0,0,0s0,0,0,0s0,0,0,0s0,0,0,0s0,0,0,0c0,0,0,0,0,0c0,0,0,0,0,0c0,0,0,0,0,0c0,0,0,0,0,0c0,0,0,0,0,0c0,0,0,0,0,0s0,0,0,0
	c0,0,0,0,0,0s0,0,0,0s0,0,0,0s0,0,0,0s0,0,0,0c0,0,0,0,0,0c0,0,0,0,0,0c0,0,0,0,0,0s0,0,0,0s0,0,0,0c0,0,0,0,0,0c0,0,0,0,0,0
	c0,0,0,0,0,0c0,0,0,0,0,0c0,0,0,0,0,0c0,0,0,0,0,0c0,0,0,0,0,0c0,0,0,0,0,0c0,0,0,0,0,0c0,0,0,0,0,0c0,0,0,0,0,0c0,0,0,0,0,0
	c0,0,0,0,0,0c0,0,0,0,0,0c0,0,0,0,0,0s0,0,0,0c0,0,0,0,0,0c0,0,0,0,0,0c0,0,0,0,0,0c0,0,0,0,0,0c0,0,0,0,0,0c0,0,0,0,0,0
	c0,0,0,0,0,0c0,0,0,0,0,0c0,0,0,0,0,0c0,0,0,0,0,0c0,0,0,0,0,0c0,0,0,0,0,0s0,0,0,0c0,0,0,0,0,0c0,0,0,0,0,0s0,0,0,0c0,0,0,0,0,0
	c0,0,0,0,0,0c0,0,0,0,0,0c0,0,0,0,0,0c0,0,0,0,0,0c0,0,0,0,0,0c0,0,0,0,0,0c0,0,0,0,0,0c0,0,0,0,0,0c0,0,0,0,0,0c0,0,0,0,0,0
	c0,0,0,0,0,0c0,0,0,0,0,0c0,0,0,0,0,0c0,0,0,0,0,0c0,0,0,0,0,0c0,0,0,0,0,0s0,0,0,0s0,0,0,0c0,0,0,0,0,0s0,0,0,0s0,0,0,0
	c0,0,0,0,0,0c0,0,0,0,0,0c0,0,0,0,0,0c0,0,0,0,0,0s0,0,0,0c0,0,0,0,0,0s0,0,0,0c0,0,0,0,0,0c0,0,0,0,0,0c0,0,0,0,0,0s0,0,0,0
	c0,0,0,0,0,0c0,0,0,0,0,0c0,0,0,0,0,0c0,0,0,0,0,0c0,0,0,0,0,0c0,0,0,0,0,0c0,0,0,0,0,0c0,0,0,0,0,0c0,0,0,0,0,0c0,0,0,0,0,0
	c0,0,0,0,0,0s0,0,0,0c0,0,0,0,0,0s0,0,0,0s0,0,0,0c0,0,0,0,0,0c0,0,0,0,0,0s0,0,0,0c0,0,0,0,0,0s0,0,0,0s0,0,0,0c0,0,0,0,0,0
	s0,0,0,0c0,0,0,0,0,0s0,0,0,0s0,0,0,0s0,0,0,0s0,0,0,0s0,0,0,0c0,0,0,0,0,0c0,0,0,0,0,0s0,0,0,0c0,0,0,0,0,0c0,0,0,0,0,0
	c0,0,0,0,0,0c0,0,0,0,0,0c0,0,0,0,0,0c0,0,0,0,0,0c0,0,0,0,0,0c0,0,0,0,0,0s0,0,0,0s0,0,0,0c0,0,0,0,0,0s0,0,0,0s0,0,0,0
	c0,0,0,0,0,0s0,0,0,0c0,0,0,0,0,0c0,0,0,0,0,0s0,0,0,0c0,0,0,0,0,0s0,0,0,0c0,0,0,0,0,0s0,0,0,0c0,0,0,0,0,0c0,0,0,0,0,0s0,0,0,0
	s0,0,0,0c0,0,0,0,0,0c0,0,0,0,0,0c0,0,0,0,0,0c0,0,0,0,0,0c0,0,0,0,0,0c0,0,0,0,0,0c0,0,0,0,0,0s0,0,0,0c0,0,0,0,0,0c0,0,0,0,0,0
	c0,0,0,0,0,0c0,0,0,0,0,0c0,0,0,0,0,0c0,0,0,0,0,0c0,0,0,0,0,0c0,0,0,0,0,0c0,0,0,0,0,0c0,0,0,0,0,0c0,0,0,0,0,0c0,0,0,0,0,0
	c0,0,0,0,0,0c0,0,0,0,0,0c0,0,0,0,0,0c0,0,0,0,0,0c0,0,0,0,0,0c0,0,0,0,0,0c0,0,0,0,0,0c0,0,0,0,0,0c0,0,0,0,0,0c0,0,0,0,0,0
	c0,0,0,0,0,0c0,0,0,0,0,0c0,0,0,0,0,0c0,0,0,0,0,0s0,0,0,0c0,0,0,0,0,0c0,0,0,0,0,0c0,0,0,0,0,0c0,0,0,0,0,0c0,0,0,0,0,0
	c0,0,0,0,0,0c0,0,0,0,0,0c0,0,0,0,0,0c0,0,0,0,0,0c0,0,0,0,0,0c0,0,0,0,0,0c0,0,0,0,0,0s0,0,0,0c0,0,0,0,0,0c0,0,0,0,0,0
	c0,0,0,0,0,0c0,0,0,0,0,0c0,0,0,0,0,0c0,0,0,0,0,0c0,0,0,0,0,0c0,0,0,0,0,0c0,0,0,0,0,0c0,0,0,0,0,0c0,0,0,0,0,0c0,0,0,0,0,0
	c0,0,0,0,0,0c0,0,0,0,0,0c0,0,0,0,0,0c0,0,0,0,0,0c0,0,0,0,0,0c0,0,0,0,0,0c0,0,0,0,0,0c0,0,0,0,0,0c0,0,0,0,0,0c0,0,0,0,0,0
	c0,0,0,0,0,0c0,0,0,0,0,0c0,0,0,0,0,0c0,0,0,0,0,0c0,0,0,0,0,0c0,0,0,0,0,0c0,0,0,0,0,0c0,0,0,0,0,0c0,0,0,0,0,0c0,0,0,0,0,0
	s0,0,0,0c0,0,0,0,0,0c0,0,0,0,0,0c0,0,0,0,0,0c0,0,0,0,0,0c0,0,0,0,0,0c0,0,0,0,0,0c0,0,0,0,0,0c0,0,0,0,0,0c0,0,0,0,0,0
	c0,0,0,0,0,0c0,0,0,0,0,0c0,0,0,0,0,0c0,0,0,0,0,0c0,0,0,0,0,0c0,0,0,0,0,0c0,0,0,0,0,0c0,0,0,0,0,0s0,0,0,0c0,0,0,0,0,0
	c0,0,0,0,0,0c0,0,0,0,0,0c0,0,0,0,0,0c0,0,0,0,0,0c0,0,0,0,0,0c0,0,0,0,0,0c0,0,0,0,0,0c0,0,0,0,0,0c0,0,0,0,0,0c0,0,0,0,0,0
	s0,0,0,0c0,0,0,0,0,0c0,0,0,0,0,0c0,0,0,0,0,0c0,0,0,0,0,0c0,0,0,0,0,0c0,0,0,0,0,0c0,0,0,0,0,0c0,0,0,0,0,0s0,0,0,0c0,0,0,0,0,0
	c0,0,0,0,0,0c0,0,0,0,0,0c0,0,0,0,0,0c0,0,0,0,0,0c0,0,0,0,0,0c0,0,0,0,0,0c0,0,0,0,0,0s0,0,0,0c0,0,0,0,0,0c0,0,0,0,0,0
	c0,0,0,0,0,0c0,0,0,0,0,0s0,0,0,0c0,0,0,0,0,0c0,0,0,0,0,0s0,0,0,0c0,0,0,0,0,0c0,0,0,0,0,0c0,0,0,0,0,0c0,0,0,0,0,0c0,0,0,0,0,0
	c0,0,0,0,0,0c0,0,0,0,0,0c0,0,0,0,0,0c0,0,0,0,0,0c0,0,0,0,0,0s0,0,0,0c0,0,0,0,0,0c0,0,0,0,0,0c0,0,0,0,0,0c0,0,0,0,0,0
	c0,0,0,0,0,0s0,0,0,0c0,0,0,0,0,0c0,0,0,0,0,0c0,0,0,0,0,0c0,0,0,0,0,0c0,0,0,0,0,0c0,0,0,0,0,0c0,0,0,0,0,0c0,0,0,0,0,0
	c0,0,0,0,0,0c0,0,0,0,0,0c0,0,0,0,0,0c0,0,0,0,0,0c0,0,0,0,0,0c0,0,0,0,0,0c0,0,0,0,0,0c0,0,0,0,0,0c0,0,0,0,0,0c0,0,0,0,0,0
	c0,0,0,0,0,0c0,0,0,0,0,0c0,0,0,0,0,0c0,0,0,0,0,0c0,0,0,0,0,0c0,0,0,0,0,0c0,0,0,0,0,0c0,0,0,0,0,0c0,0,0,0,0,0c0,0,0,0,0,0
	c0,0,0,0,0,0c0,0,0,0,0,0c0,0,0,0,0,0c0,0,0,0,0,0c0,0,0,0,0,0c0,0,0,0,0,0c0,0,0,0,0,0c0,0,0,0,0,0c0,0,0,0,0,0c0,0,0,0,0,0
	c0,0,0,0,0,0c0,0,0,0,0,0c0,0,0,0,0,0c0,0,0,0,0,0c0,0,0,0,0,0c0,0,0,0,0,0c0,0,0,0,0,0s0,0,0,0c0,0,0,0,0,0c0,0,0,0,0,0
	c0,0,0,0,0,0s0,0,0,0c0,0,0,0,0,0c0,0,0,0,0,0c0,0,0,0,0,0c0,0,0,0,0,0c0,0,0,0,0,0c0,0,0,0,0,0c0,0,0,0,0,0c0,0,0,0,0,0
	c0,0,0,0,0,0c0,0,0,0,0,0c0,0,0,0,0,0c0,0,0,0,0,0c0,0,0,0,0,0c0,0,0,0,0,0c0,0,0,0,0,0c0,0,0,0,0,0c0,0,0,0,0,0c0,0,0,0,0,0
	c0,0,0,0,0,0c0,0,0,0,0,0c0,0,0,0,0,0c0,0,0,0,0,0c0,0,0,0,0,0s0,0,0,0s0,0,0,0V11z"/>
<path class="st2" d="M37,9c-0.6,0-1,0.4-1,1s0.4,1,1,1V9z M39,11c0.6,0,1-0.4,1-1s-0.4-1-1-1V11z M37,11h2V9h-2V11z"/>
<path class="st2" d="M35.6,6c-0.4,0.4-0.4,1,0,1.4c0.4,0.4,1,0.4,1.4,0L35.6,6z M38.4,6c0.4-0.4,0.4-1,0-1.4c-0.4-0.4-1-0.4-1.4,0
	L38.4,6z M37,7.4L38.4,6L37,4.6L35.6,6L37,7.4z"/>
</svg>
