<svg width="52" height="52" viewBox="0 0 52 52" fill="none" xmlns="http://www.w3.org/2000/svg">
<path d="M19.5002 23.8333C24.2866 23.8333 28.1668 19.9531 28.1668 15.1667C28.1668 10.3802 24.2866 6.5 19.5002 6.5C14.7137 6.5 10.8335 10.3802 10.8335 15.1667C10.8335 19.9531 14.7137 23.8333 19.5002 23.8333Z" stroke="#00B1BB" stroke-width="2" stroke-linecap="round" stroke-linejoin="round"/>
<path d="M6.5 45.5V41.1667C6.5 38.8681 7.41309 36.6637 9.03841 35.0384C10.6637 33.4131 12.8681 32.5 15.1667 32.5H23.8333C26.1319 32.5 28.3363 33.4131 29.9616 35.0384C31.5869 36.6637 32.5 38.8681 32.5 41.1667V45.5" stroke="#00B1BB" stroke-width="2" stroke-linecap="round" stroke-linejoin="round"/>
<path d="M34.6665 6.78174C36.5307 7.25906 38.1831 8.34326 39.3631 9.86341C40.543 11.3836 41.1835 13.2532 41.1835 15.1776C41.1835 17.1019 40.543 18.9716 39.3631 20.4917C38.1831 22.0119 36.5307 23.0961 34.6665 23.5734" stroke="#00B1BB" stroke-width="2" stroke-linecap="round" stroke-linejoin="round"/>
<path d="M45.5 45.5V41.1666C45.489 39.2538 44.8455 37.3983 43.6697 35.8895C42.494 34.3806 40.8521 33.3031 39 32.825" stroke="#00B1BB" stroke-width="2" stroke-linecap="round" stroke-linejoin="round"/>
</svg>
