<svg width="52" height="52" viewBox="0 0 52 52" fill="none" xmlns="http://www.w3.org/2000/svg">
<path d="M32.5 21.6667L42.3648 16.7353C42.6951 16.5703 43.062 16.4924 43.4308 16.509C43.7996 16.5256 44.1581 16.6362 44.4721 16.8303C44.7862 17.0243 45.0455 17.2954 45.2254 17.6178C45.4053 17.9402 45.4998 18.3032 45.5 18.6723V33.3277C45.4998 33.6969 45.4053 34.0599 45.2254 34.3823C45.0455 34.7046 44.7862 34.9757 44.4721 35.1698C44.1581 35.3638 43.7996 35.4744 43.4308 35.491C43.062 35.5076 42.6951 35.4297 42.3648 35.2647L32.5 30.3333V21.6667Z" stroke="#00B1BB" stroke-width="2" stroke-linecap="round" stroke-linejoin="round"/>
<path d="M28.1667 13H10.8333C8.4401 13 6.5 14.9401 6.5 17.3333V34.6667C6.5 37.0599 8.4401 39 10.8333 39H28.1667C30.5599 39 32.5 37.0599 32.5 34.6667V17.3333C32.5 14.9401 30.5599 13 28.1667 13Z" stroke="#00B1BB" stroke-width="2" stroke-linecap="round" stroke-linejoin="round"/>
</svg>
